<svg width="22" height="22" viewBox="0 0 22 22" fill="none" xmlns="http://www.w3.org/2000/svg">
<path fill-rule="evenodd" clip-rule="evenodd" d="M6.33109 7.47345C7.7525 10.3059 11.6941 14.2475 14.5266 15.6689L16.5007 13.7848C17.0866 13.2256 18.014 13.2364 18.5867 13.8091L21.5627 16.7851C21.868 17.0904 22.0158 17.4682 21.9987 17.8997C21.9816 18.3312 21.8042 18.6961 21.4757 18.9763L17.9302 21.9994C11.438 22.0952 -0.0980328 10.7599 0.000628763 4.06984L3.02371 0.524345C3.30387 0.195771 3.66882 0.0184985 4.10028 0.00133348C4.5318 -0.0157818 4.90962 0.131987 5.21491 0.437325L8.19088 3.41334C8.76359 3.98601 8.77439 4.91342 8.21521 5.49932L6.33109 7.47345ZM12.8348 2.80272C14.4424 2.80272 15.8977 3.45424 16.9512 4.50768C18.0046 5.56106 18.6561 7.01641 18.6561 8.62395C18.6561 8.95367 18.9234 9.221 19.2532 9.221C19.5829 9.221 19.8502 8.95367 19.8502 8.62395C19.8502 6.68679 19.0649 4.93292 17.7954 3.66341C16.5258 2.39384 14.7719 1.60863 12.8347 1.60863C12.505 1.60863 12.2377 1.87595 12.2377 2.20567C12.2377 2.53539 12.5051 2.80272 12.8348 2.80272ZM12.8348 5.92228C13.5809 5.92228 14.2563 6.22468 14.7452 6.71356C15.2341 7.20244 15.5365 7.8779 15.5365 8.624C15.5365 8.95372 15.8038 9.22105 16.1336 9.22105C16.4633 9.22105 16.7306 8.95372 16.7306 8.624C16.7306 7.54828 16.2945 6.5743 15.5895 5.86929C14.8845 5.16428 13.9105 4.72819 12.8348 4.72819C12.5051 4.72819 12.2377 4.99551 12.2377 5.32523C12.2377 5.65495 12.5051 5.92228 12.8348 5.92228Z" fill="white"/>
</svg>
