<svg width="26" height="25" viewBox="0 0 26 25" fill="none" xmlns="http://www.w3.org/2000/svg">
<path d="M23.8052 4.57747H2.19481C0.979221 4.57747 0 3.55634 0 2.28873C0 1.02113 0.979221 0 2.19481 0H23.8052C25.0208 0 26 1.02113 26 2.28873C26 3.55634 25.0208 4.57747 23.8052 4.57747ZM26 12.5C26 11.2324 25.0208 10.2113 23.8052 10.2113H2.19481C0.979221 10.2113 0 11.2324 0 12.5C0 13.7676 0.979221 14.7887 2.19481 14.7887H23.8052C25.0208 14.7887 26 13.7676 26 12.5ZM26 22.7113C26 21.4437 25.0208 20.4225 23.8052 20.4225H2.19481C0.979221 20.4225 0 21.4437 0 22.7113C0 23.9789 0.979221 25 2.19481 25H23.8052C25.0208 25 26 23.9789 26 22.7113Z" fill="url(#paint0_linear_8_21)"/>
<defs>
<linearGradient id="paint0_linear_8_21" x1="0" y1="12.6667" x2="26" y2="12.6667" gradientUnits="userSpaceOnUse">
<stop stop-color="#0193FE"/>
<stop offset="1" stop-color="#00D1FF"/>
</linearGradient>
</defs>
</svg>
