<svg width="26" height="25" viewBox="0 0 26 25" fill="none" xmlns="http://www.w3.org/2000/svg">
<path d="M13 15.1616L3.31179 24.4772C2.9493 24.8257 2.48796 25 1.92776 25C1.36755 25 0.90621 24.8257 0.543725 24.4772C0.181241 24.1286 0 23.685 0 23.1464C0 22.6077 0.181241 22.1641 0.543725 21.8156L10.2319 12.5L0.543725 3.18441C0.181241 2.83587 0 2.39227 0 1.85361C0 1.31496 0.181241 0.871355 0.543725 0.522813C0.90621 0.17427 1.36755 0 1.92776 0C2.48796 0 2.9493 0.17427 3.31179 0.522813L13 9.8384L22.6882 0.522813C23.0507 0.17427 23.512 0 24.0722 0C24.6324 0 25.0938 0.17427 25.4563 0.522813C25.8188 0.871355 26 1.31496 26 1.85361C26 2.39227 25.8188 2.83587 25.4563 3.18441L15.7681 12.5L25.4563 21.8156C25.8188 22.1641 26 22.6077 26 23.1464C26 23.685 25.8188 24.1286 25.4563 24.4772C25.0938 24.8257 24.6324 25 24.0722 25C23.512 25 23.0507 24.8257 22.6882 24.4772L13 15.1616Z" fill="url(#paint0_linear_27_384)"/>
<defs>
<linearGradient id="paint0_linear_27_384" x1="6.56919e-08" y1="12.6667" x2="26" y2="12.6667" gradientUnits="userSpaceOnUse">
<stop stop-color="#F95B50"/>
<stop offset="1" stop-color="#FF8742"/>
</linearGradient>
</defs>
</svg>
