<svg width="26" height="26" viewBox="0 0 26 26" fill="none" xmlns="http://www.w3.org/2000/svg">
<path d="M6.65854 5.79902C5.51707 5.3848 4.43902 4.84314 3.39268 4.20588C5.00976 2.45343 7.07073 1.1152 9.41707 0.446079C8.27561 1.68873 7.32439 3.53676 6.65854 5.79902ZM3.39268 21.7623C5.00976 23.5466 7.10244 24.8529 9.44878 25.5539C8.27561 24.2794 7.32439 22.4314 6.69024 20.1691C5.51707 20.5833 4.40732 21.125 3.39268 21.7623ZM5.70732 13.6373H0C0.126829 16.3137 1.04634 18.7672 2.53659 20.7745C3.74146 20.0098 5.00976 19.4044 6.30976 18.9265C5.96098 17.3015 5.77073 15.5172 5.70732 13.6373ZM16.5829 25.5539C18.9293 24.8848 21.022 23.5466 22.6073 21.7941C21.561 21.1569 20.4829 20.6152 19.3415 20.201C18.6756 22.4632 17.7244 24.3113 16.5829 25.5539ZM22.6073 4.23774C20.9902 2.45343 18.8976 1.14706 16.5512 0.446079C17.7244 1.72059 18.6756 3.56863 19.3098 5.83088C20.4829 5.41667 21.5927 4.875 22.6073 4.23774ZM6.34146 7.04167C5.04146 6.56372 3.77317 5.95833 2.56829 5.19363C1.07805 7.20098 0.158537 9.68627 0 12.3627H5.70732C5.77073 10.451 5.96098 8.66667 6.34146 7.04167ZM20.2927 12.3627H26C25.8732 9.68627 24.9537 7.23284 23.4634 5.22549C22.2585 5.9902 20.9902 6.59559 19.6902 7.07353C20.039 8.69853 20.2293 10.4828 20.2927 12.3627ZM19.6585 18.9583C20.9585 19.4363 22.2268 20.0417 23.4317 20.8064C24.9537 18.799 25.8732 16.3137 26 13.6373H20.2927C20.2293 15.549 20.039 17.3333 19.6585 18.9583ZM12.3659 26V19.0539C10.8439 19.1176 9.32195 19.3407 7.86341 19.7549C8.84634 23.1323 10.4951 25.5221 12.3659 26ZM19.0244 13.6373H13.6341V17.7794C15.2829 17.8431 16.8683 18.098 18.422 18.5441C18.7707 17.0466 18.961 15.3897 19.0244 13.6373ZM13.6341 19.0539V25.9681C15.5049 25.5221 17.1537 23.1323 18.1049 19.7549C16.678 19.3725 15.1561 19.1176 13.6341 19.0539ZM13.6341 0V6.94608C15.1561 6.88235 16.678 6.65931 18.1366 6.2451C17.1537 2.86765 15.5049 0.446078 13.6341 0ZM6.97561 12.3627H12.3659V8.22059C10.7171 8.15686 9.13171 7.90196 7.57805 7.45588C7.22927 8.95343 7.03902 10.6103 6.97561 12.3627ZM7.89512 6.21323C9.32195 6.62745 10.8439 6.88235 12.3659 6.94608V0C10.4951 0.446078 8.84634 2.86765 7.89512 6.21323ZM18.422 7.45588C16.8683 7.90196 15.2829 8.15686 13.6341 8.22059V12.3627H19.0244C18.961 10.6103 18.7707 8.95343 18.422 7.45588ZM7.57805 18.5441C9.13171 18.098 10.7488 17.8431 12.3659 17.7794V13.6373H6.97561C7.03902 15.3897 7.22927 17.0147 7.57805 18.5441Z" fill="white"/>
</svg>
